Hermit-Italic.ufo
<glyph name="numbersign" format="1">
  <advance width="618"/>
  <unicode hex="0023"/>
  <note>
    numbersign
  </note>
  <outline>
    <contour>
      <point x="214" y="0" type="line"/>
      <point x="242" y="160" type="line"/>
      <point x="344" y="160" type="line"/>
      <point x="316" y="0" type="line"/>
      <point x="406" y="0" type="line"/>
      <point x="434" y="160" type="line"/>
      <point x="524" y="160" type="line"/>
      <point x="540" y="250" type="line"/>
      <point x="450" y="250" type="line"/>
      <point x="494" y="500" type="line"/>
      <point x="584" y="500" type="line"/>
      <point x="600" y="590" type="line"/>
      <point x="510" y="590" type="line"/>
      <point x="538" y="750" type="line"/>
      <point x="448" y="750" type="line"/>
      <point x="420" y="590" type="line"/>
      <point x="318" y="590" type="line"/>
      <point x="346" y="750" type="line"/>
      <point x="256" y="750" type="line"/>
      <point x="228" y="590" type="line"/>
      <point x="138" y="590" type="line"/>
      <point x="122" y="500" type="line"/>
      <point x="212" y="500" type="line"/>
      <point x="168" y="250" type="line"/>
      <point x="78" y="250" type="line"/>
      <point x="62" y="160" type="line"/>
      <point x="152" y="160" type="line"/>
      <point x="124" y="0" type="line"/>
    </contour>
    <contour>
      <point x="302" y="500" type="line"/>
      <point x="404" y="500" type="line"/>
      <point x="360" y="250" type="line"/>
      <point x="258" y="250" type="line"/>
    </contour>
  </outline>
</glyph>
<glyph name="percent" format="1">
  <advance width="618"/>
  <unicode hex="0025"/>
  <note>
    percent
  </note>
  <outline>
    <contour>
      <point x="53" y="0" type="line"/>
      <point x="707" y="750" type="line"/>
      <point x="609" y="750" type="line"/>
      <point x="-45" y="0" type="line"/>
    </contour>
    <contour>
      <point x="576" y="0"/>
      <point x="600" y="148"/>
      <point x="600" y="149" type="curve"/>
      <point x="601" y="152"/>
      <point x="625" y="311"/>
      <point x="470" y="311" type="curve" smooth="yes"/>
      <point x="325" y="311"/>
      <point x="301" y="162"/>
      <point x="300" y="161" type="curve" smooth="yes"/>
      <point x="299" y="154"/>
      <point x="276" y="0"/>
      <point x="428" y="0" type="curve" smooth="yes"/>
    </contour>
    <contour>
      <point x="367" y="80"/>
      <point x="376" y="137"/>
      <point x="378" y="150" type="curve" smooth="yes"/>
      <point x="379" y="155" type="line" smooth="yes"/>
      <point x="382" y="168"/>
      <point x="400" y="231"/>
      <point x="469" y="231" type="curve" smooth="yes"/>
      <point x="532" y="231"/>
      <point x="523" y="174"/>
      <point x="520" y="161" type="curve" smooth="yes"/>
      <point x="519" y="156" type="line" smooth="yes"/>
      <point x="517" y="143"/>
      <point x="499" y="80"/>
      <point x="430" y="80" type="curve" smooth="yes"/>
    </contour>
    <contour>
      <point x="337" y="440"/>
      <point x="360" y="588"/>
      <point x="360" y="589" type="curve"/>
      <point x="360" y="592"/>
      <point x="385" y="750"/>
      <point x="232" y="750" type="curve" smooth="yes"/>
      <point x="85" y="750"/>
      <point x="60" y="592"/>
      <point x="60" y="589" type="curve" smooth="yes"/>
      <point x="60" y="592"/>
      <point x="37" y="440"/>
      <point x="190" y="440" type="curve" smooth="yes"/>
    </contour>
    <contour>
      <point x="128" y="519"/>
      <point x="137" y="576"/>
      <point x="140" y="589" type="curve" smooth="yes"/>
      <point x="141" y="594" type="line" smooth="yes"/>
      <point x="143" y="607"/>
      <point x="161" y="671"/>
      <point x="231" y="671" type="curve" smooth="yes"/>
      <point x="293" y="671"/>
      <point x="284" y="613"/>
      <point x="282" y="600" type="curve" smooth="yes"/>
      <point x="281" y="595" type="line" smooth="yes"/>
      <point x="279" y="582"/>
      <point x="260" y="519"/>
      <point x="191" y="519" type="curve" smooth="yes"/>
    </contour>
  </outline>
</glyph>
<glyph name="quotesingle" format="1">
  <advance width="618"/>
  <unicode hex="0027"/>
  <note>
    quotesingle
  </note>
  <outline>
    <contour>
      <point x="384" y="410"/>
      <point x="412" y="579"/>
      <point x="427" y="666" type="curve"/>
      <point x="428" y="669"/>
      <point x="438" y="750"/>
      <point x="390" y="750" type="curve" smooth="yes"/>
      <point x="350" y="750"/>
      <point x="340" y="681"/>
      <point x="339" y="675" type="curve" smooth="yes"/>
      <point x="337" y="663" type="line" smooth="yes"/>
      <point x="321" y="571"/>
      <point x="296" y="410"/>
      <point x="342" y="410" type="curve" smooth="yes"/>
    </contour>
  </outline>
</glyph>
<glyph name="parenright" format="1">
  <advance width="618"/>
  <unicode hex="0029"/>
  <note>
    parenright
  </note>
  <outline>
    <contour>
      <point x="443" y="-90"/>
      <point x="516" y="333"/>
      <point x="516" y="336" type="curve" smooth="yes"/>
      <point x="516" y="333"/>
      <point x="585" y="750"/>
      <point x="202" y="750" type="curve"/>
      <point x="193" y="660" type="line"/>
      <point x="484" y="660"/>
      <point x="425" y="337"/>
      <point x="425" y="336" type="curve" smooth="yes"/>
      <point x="424" y="329"/>
      <point x="362" y="0"/>
      <point x="70" y="0" type="curve"/>
      <point x="60" y="-90" type="line"/>
    </contour>
  </outline>
</glyph>
<glyph name="asterisk" format="1">
  <advance width="618"/>
  <unicode hex="002A"/>
  <note>
    asterisk
  </note>
  <outline>
    <contour>
      <point x="324" y="80" type="line"/>
      <point x="354" y="243" type="line"/>
      <point x="473" y="150" type="line"/>
      <point x="535" y="222" type="line"/>
      <point x="400" y="330" type="line"/>
      <point x="573" y="438" type="line"/>
      <point x="533" y="510" type="line"/>
      <point x="383" y="417" type="line"/>
      <point x="412" y="580" type="line"/>
      <point x="322" y="580" type="line"/>
      <point x="293" y="417" type="line"/>
      <point x="174" y="510" type="line"/>
      <point x="111" y="438" type="line"/>
      <point x="244" y="330" type="line"/>
      <point x="73" y="222" type="line"/>
      <point x="114" y="150" type="line"/>
      <point x="264" y="243" type="line"/>
      <point x="234" y="80" type="line"/>
    </contour>
  </outline>
</glyph>
<glyph name="comma" format="1">
  <advance width="618"/>
  <unicode hex="002C"/>
  <note>
    comma
  </note>
  <outline>
    <contour>
      <point x="286" y="-160"/>
      <point x="352" y="-15"/>
      <point x="370" y="84" type="curve" smooth="yes"/>
      <point x="378" y="132"/>
      <point x="339" y="180"/>
      <point x="290" y="180" type="curve" smooth="yes"/>
      <point x="249" y="180"/>
      <point x="199" y="138"/>
      <point x="192" y="96" type="curve" smooth="yes"/>
      <point x="184" y="51"/>
      <point x="219" y="7"/>
      <point x="260" y="4" type="curve"/>
      <point x="213" y="-108"/>
      <point x="142" y="-144"/>
      <point x="140" y="-151" type="curve" smooth="yes"/>
      <point x="139" y="-156"/>
      <point x="144" y="-160"/>
      <point x="154" y="-160" type="curve" smooth="yes"/>
    </contour>
  </outline>
</glyph>
<glyph name="four" format="1">
  <advance width="618"/>
  <unicode hex="0034"/>
  <note>
    four
  </note>
  <outline>
    <contour>
      <point x="496" y="0" type="line"/>
      <point x="628" y="750" type="line"/>
      <point x="516" y="750" type="line"/>
      <point x="99" y="375" type="line"/>
      <point x="84" y="285" type="line"/>
      <point x="456" y="285" type="line"/>
      <point x="406" y="0" type="line"/>
    </contour>
    <contour>
      <point x="520" y="640" type="line"/>
      <point x="472" y="375" type="line"/>
      <point x="223" y="375" type="line"/>
    </contour>
  </outline>
</glyph>
<glyph name="colon" format="1">
  <advance width="618"/>
  <unicode hex="003A"/>
  <note>
    colon
  </note>
  <outline>
    <contour>
      <point x="373" y="338"/>
      <point x="422" y="380"/>
      <point x="429" y="422" type="curve" smooth="yes"/>
      <point x="438" y="470"/>
      <point x="398" y="518"/>
      <point x="350" y="518" type="curve" smooth="yes"/>
      <point x="308" y="518"/>
      <point x="259" y="476"/>
      <point x="251" y="434" type="curve" smooth="yes"/>
      <point x="243" y="386"/>
      <point x="283" y="338"/>
      <point x="331" y="338" type="curve" smooth="yes"/>
    </contour>
    <contour>
      <point x="313" y="0"/>
      <point x="362" y="42"/>
      <point x="370" y="84" type="curve" smooth="yes"/>
      <point x="378" y="132"/>
      <point x="339" y="180"/>
      <point x="290" y="180" type="curve" smooth="yes"/>
      <point x="249" y="180"/>
      <point x="199" y="138"/>
      <point x="192" y="96" type="curve" smooth="yes"/>
      <point x="183" y="48"/>
      <point x="223" y="0"/>
      <point x="271" y="0" type="curve" smooth="yes"/>
    </contour>
  </outline>
</glyph>
<glyph name="greater" format="1">
  <advance width="618"/>
  <unicode hex="003E"/>
  <note>
    greater
  </note>
  <outline>
    <contour>
      <point x="508" y="285" type="line"/>
      <point x="522" y="375" type="line"/>
      <point x="175" y="580" type="line"/>
      <point x="158" y="478" type="line"/>
      <point x="407" y="330" type="line"/>
      <point x="104" y="182" type="line"/>
      <point x="88" y="80" type="line"/>
    </contour>
  </outline>
</glyph>
<glyph name="question" format="1">
  <advance width="618"/>
  <unicode hex="003F"/>
  <note>
    question
  </note>
  <outline>
    <contour>
      <point x="355" y="250" type="line"/>
      <point x="380" y="375" type="line"/>
      <point x="495" y="377"/>
      <point x="565" y="392"/>
      <point x="594" y="556" type="curve" smooth="yes"/>
      <point x="628" y="747"/>
      <point x="534" y="750"/>
      <point x="391" y="750" type="curve" smooth="yes"/>
      <point x="254" y="750"/>
      <point x="167" y="753"/>
      <point x="134" y="565" type="curve"/>
      <point x="222" y="559" type="line"/>
      <point x="240" y="657"/>
      <point x="294" y="660"/>
      <point x="388" y="660" type="curve" smooth="yes"/>
      <point x="474" y="660"/>
      <point x="523" y="663"/>
      <point x="506" y="568" type="curve" smooth="yes"/>
      <point x="489" y="469"/>
      <point x="436" y="465"/>
      <point x="349" y="465" type="curve" smooth="yes"/>
      <point x="303" y="465" type="line"/>
      <point x="265" y="250" type="line"/>
    </contour>
    <contour>
      <point x="297" y="-90"/>
      <point x="346" y="-48"/>
      <point x="354" y="-6" type="curve" smooth="yes"/>
      <point x="362" y="42"/>
      <point x="323" y="90"/>
      <point x="275" y="90" type="curve" smooth="yes"/>
      <point x="233" y="90"/>
      <point x="183" y="48"/>
      <point x="176" y="6" type="curve" smooth="yes"/>
      <point x="168" y="-42"/>
      <point x="207" y="-90"/>
      <point x="255" y="-90" type="curve" smooth="yes"/>
    </contour>
  </outline>
</glyph>
<glyph name="B" format="1">
  <advance width="618"/>
  <unicode hex="0042"/>
  <note>
    B
  </note>
  <outline>
    <contour>
      <point x="268" y="0" type="line" smooth="yes"/>
      <point x="498" y="0"/>
      <point x="538" y="241"/>
      <point x="539" y="244" type="curve" smooth="yes"/>
      <point x="538" y="241"/>
      <point x="557" y="365"/>
      <point x="463" y="422" type="curve"/>
      <point x="534" y="457"/>
      <point x="550" y="559"/>
      <point x="550" y="562" type="curve" smooth="yes"/>
      <point x="550" y="559"/>
      <point x="580" y="750"/>
      <point x="394" y="750" type="curve" smooth="yes"/>
      <point x="166" y="750" type="line"/>
      <point x="34" y="0" type="line"/>
    </contour>
    <contour>
      <point x="192" y="386" type="line"/>
      <point x="336" y="386" type="line" smooth="yes"/>
      <point x="476" y="386"/>
      <point x="447" y="235"/>
      <point x="447" y="232" type="curve" smooth="yes"/>
      <point x="447" y="235"/>
      <point x="418" y="90"/>
      <point x="278" y="90" type="curve" smooth="yes"/>
      <point x="140" y="90" type="line"/>
    </contour>
    <contour>
      <point x="240" y="660" type="line"/>
      <point x="384" y="660" type="line" smooth="yes"/>
      <point x="480" y="660"/>
      <point x="458" y="553"/>
      <point x="458" y="550" type="curve" smooth="yes"/>
      <point x="458" y="553"/>
      <point x="438" y="453"/>
      <point x="342" y="453" type="curve" smooth="yes"/>
      <point x="204" y="453" type="line"/>
    </contour>
    <contour>
      <point x="397" y="750" type="move" name="top"/>
    </contour>
    <contour>
      <point x="265" y="0" type="move" name="bottom"/>
    </contour>
  </outline>
</glyph>
<glyph name="C" format="1">
  <advance width="618"/>
  <unicode hex="0043"/>
  <note>
    C
  </note>
  <outline>
    <contour>
      <point x="358" y="0"/>
      <point x="495" y="-3"/>
      <point x="524" y="157" type="curve"/>
      <point x="435" y="163" type="line"/>
      <point x="422" y="93"/>
      <point x="326" y="90"/>
      <point x="280" y="90" type="curve" smooth="yes"/>
      <point x="278" y="90" type="line" smooth="yes"/>
      <point x="188" y="90"/>
      <point x="152" y="157"/>
      <point x="189" y="369" type="curve" smooth="yes"/>
      <point x="227" y="587"/>
      <point x="294" y="660"/>
      <point x="384" y="660" type="curve" smooth="yes"/>
      <point x="386" y="660" type="line" smooth="yes"/>
      <point x="432" y="660"/>
      <point x="523" y="663"/>
      <point x="511" y="593" type="curve"/>
      <point x="599" y="587" type="line"/>
      <point x="628" y="747"/>
      <point x="484" y="750"/>
      <point x="391" y="750" type="curve" smooth="yes"/>
      <point x="254" y="750"/>
      <point x="151" y="663"/>
      <point x="101" y="381" type="curve" smooth="yes"/>
      <point x="50" y="93"/>
      <point x="128" y="0"/>
      <point x="271" y="0" type="curve" smooth="yes"/>
    </contour>
    <contour>
      <point x="397" y="750" type="move" name="top"/>
    </contour>
    <contour>
      <point x="265" y="0" type="move" name="bottom"/>
    </contour>
  </outline>
</glyph>
<glyph name="H" format="1">
  <advance width="618"/>
  <unicode hex="0048"/>
  <note>
    H
  </note>
  <outline>
    <contour>
      <point x="124" y="0" type="line"/>
      <point x="182" y="330" type="line"/>
      <point x="464" y="330" type="line"/>
      <point x="406" y="0" type="line"/>
      <point x="496" y="0" type="line"/>
      <point x="628" y="750" type="line"/>
      <point x="538" y="750" type="line"/>
      <point x="480" y="420" type="line"/>
      <point x="198" y="420" type="line"/>
      <point x="256" y="750" type="line"/>
      <point x="166" y="750" type="line"/>
      <point x="34" y="0" type="line"/>
    </contour>
    <contour>
      <point x="265" y="0" type="move" name="bottom"/>
    </contour>
    <contour>
      <point x="397" y="750" type="move" name="top"/>
    </contour>
    <contour>
      <point x="108" y="750" type="move" name="topleft"/>
    </contour>
    <contour>
      <point x="331" y="375" type="move" name="center"/>
    </contour>
  </outline>
</glyph>
<glyph name="L" format="1">
  <advance width="618"/>
  <unicode hex="004C"/>
  <note>
    L
  </note>
  <outline>
    <contour>
      <point x="496" y="0" type="line"/>
      <point x="511" y="87" type="line"/>
      <point x="140" y="90" type="line"/>
      <point x="256" y="750" type="line"/>
      <point x="166" y="750" type="line"/>
      <point x="34" y="0" type="line"/>
    </contour>
    <contour>
      <point x="265" y="0" type="move" name="bottom"/>
    </contour>
    <contour>
      <point x="211" y="750" type="move" name="top"/>
    </contour>
    <contour>
      <point x="685" y="750" type="move" name="topright"/>
    </contour>
    <contour>
      <point x="353" y="500" type="move" name="topcaroncombalt"/>
    </contour>
    <contour>
      <point x="226" y="375" type="move" name="center"/>
    </contour>
  </outline>
</glyph>
<glyph name="P" format="1">
  <advance width="618"/>
  <unicode hex="0050"/>
  <note>
    P
  </note>
  <outline>
    <contour>
      <point x="124" y="0" type="line"/>
      <point x="182" y="330" type="line"/>
      <point x="326" y="330" type="line" smooth="yes"/>
      <point x="556" y="330"/>
      <point x="592" y="543"/>
      <point x="592" y="546" type="curve" smooth="yes"/>
      <point x="592" y="543"/>
      <point x="624" y="750"/>
      <point x="394" y="750" type="curve" smooth="yes"/>
      <point x="166" y="750" type="line"/>
      <point x="34" y="0" type="line"/>
    </contour>
    <contour>
      <point x="240" y="660" type="line"/>
      <point x="384" y="660" type="line" smooth="yes"/>
      <point x="524" y="660"/>
      <point x="501" y="537"/>
      <point x="500" y="534" type="curve" smooth="yes"/>
      <point x="501" y="537"/>
      <point x="476" y="420"/>
      <point x="336" y="420" type="curve" smooth="yes"/>
      <point x="198" y="420" type="line"/>
    </contour>
    <contour>
      <point x="397" y="750" type="move" name="top"/>
    </contour>
    <contour>
      <point x="265" y="0" type="move" name="bottom"/>
    </contour>
  </outline>
</glyph>
<glyph name="T" format="1">
  <advance width="618"/>
  <unicode hex="0054"/>
  <note>
    T
  </note>
  <outline>
    <contour>
      <point x="310" y="0" type="line"/>
      <point x="428" y="670" type="line"/>
      <point x="614" y="670" type="line"/>
      <point x="628" y="750" type="line"/>
      <point x="166" y="750" type="line"/>
      <point x="152" y="670" type="line"/>
      <point x="338" y="670" type="line"/>
      <point x="220" y="0" type="line"/>
    </contour>
    <contour>
      <point x="277" y="70" type="move" name="center"/>
    </contour>
    <contour>
      <point x="265" y="0" type="move" name="bottom"/>
    </contour>
    <contour>
      <point x="397" y="750" type="move" name="top"/>
    </contour>
  </outline>
</glyph>
<glyph name="W" format="1">
  <advance width="618"/>
  <unicode hex="0057"/>
  <note>
    W
  </note>
  <outline>
    <contour>
      <point x="183" y="0" type="line"/>
      <point x="323" y="323" type="line"/>
      <point x="350" y="0" type="line"/>
      <point x="439" y="0" type="line"/>
      <point x="628" y="750" type="line"/>
      <point x="537" y="750" type="line"/>
      <point x="416" y="272" type="line"/>
      <point x="398" y="500" type="line"/>
      <point x="306" y="500" type="line"/>
      <point x="208" y="274" type="line"/>
      <point x="257" y="750" type="line"/>
      <point x="166" y="750" type="line"/>
      <point x="91" y="0" type="line"/>
    </contour>
    <contour>
      <point x="397" y="750" type="move" name="top"/>
    </contour>
    <contour>
      <point x="265" y="0" type="move" name="bottom"/>
    </contour>
  </outline>
</glyph>
<glyph name="Y" format="1">
  <advance width="618"/>
  <unicode hex="0059"/>
  <note>
    Y
  </note>
  <outline>
    <contour>
      <point x="310" y="0" type="line"/>
      <point x="377" y="375" type="line"/>
      <point x="629" y="750" type="line"/>
      <point x="526" y="750" type="line"/>
      <point x="348" y="486" type="line"/>
      <point x="265" y="750" type="line"/>
      <point x="167" y="750" type="line"/>
      <point x="287" y="375" type="line"/>
      <point x="220" y="0" type="line"/>
    </contour>
    <contour>
      <point x="397" y="750" type="move" name="top"/>
    </contour>
    <contour>
      <point x="265" y="0" type="move" name="bottom"/>
    </contour>
    <contour>
      <point x="108" y="750" type="move" name="topleft"/>
    </contour>
  </outline>
</glyph>
<glyph name="Z" format="1">
  <advance width="618"/>
  <unicode hex="005A"/>
  <note>
    Z
  </note>
  <outline>
    <contour>
      <point x="496" y="0" type="line"/>
      <point x="512" y="90" type="line"/>
      <point x="193" y="90" type="line"/>
      <point x="629" y="750" type="line"/>
      <point x="166" y="750" type="line"/>
      <point x="150" y="660" type="line"/>
      <point x="468" y="660" type="line"/>
      <point x="33" y="0" type="line"/>
    </contour>
    <contour>
      <point x="397" y="750" type="move" name="top"/>
    </contour>
    <contour>
      <point x="265" y="0" type="move" name="bottom"/>
    </contour>
  </outline>
</glyph>
<glyph name="asciicircum" format="1">
  <advance width="618"/>
  <unicode hex="005E"/>
  <note>
    asciicircum
  </note>
  <outline>
    <contour>
      <point x="237" y="375" type="line"/>
      <point x="376" y="617" type="line"/>
      <point x="427" y="375" type="line"/>
      <point x="522" y="375" type="line"/>
      <point x="441" y="750" type="line"/>
      <point x="351" y="750" type="line"/>
      <point x="138" y="375" type="line"/>
    </contour>
  </outline>
</glyph>
<glyph name="underscore" format="1">
  <advance width="618"/>
  <unicode hex="005F"/>
  <note>
    underscore
  </note>
  <outline>
    <contour>
      <point x="480" y="-90" type="line"/>
      <point x="496" y="0" type="line"/>
      <point x="34" y="0" type="line"/>
      <point x="18" y="-90" type="line"/>
    </contour>
  </outline>
</glyph>
<glyph name="a" format="1">
  <advance width="618"/>
  <unicode hex="0061"/>
  <note>
    a
  </note>
  <outline>
    <contour>
      <point x="496" y="0" type="line"/>
      <point x="547" y="292" type="line" smooth="yes"/>
      <point x="555" y="335"/>
      <point x="567" y="500"/>
      <point x="347" y="500" type="curve" smooth="yes"/>
      <point x="275" y="500"/>
      <point x="200" y="472"/>
      <point x="133" y="441" type="curve"/>
      <point x="166" y="364" type="line"/>
      <point x="214" y="386"/>
      <point x="260" y="410"/>
      <point x="343" y="410" type="curve" smooth="yes"/>
      <point x="415" y="410"/>
      <point x="475" y="394"/>
      <point x="458" y="298" type="curve"/>
      <point x="314" y="295" type="line" smooth="yes"/>
      <point x="174" y="295"/>
      <point x="83" y="277"/>
      <point x="61" y="154" type="curve" smooth="yes"/>
      <point x="41" y="39"/>
      <point x="128" y="0"/>
      <point x="268" y="0" type="curve" smooth="yes"/>
    </contour>
    <contour>
      <point x="206" y="90"/>
      <point x="139" y="87"/>
      <point x="149" y="142" type="curve" smooth="yes"/>
      <point x="159" y="201"/>
      <point x="232" y="205"/>
      <point x="304" y="205" type="curve" smooth="yes"/>
      <point x="442" y="205" type="line"/>
      <point x="422" y="90" type="line"/>
      <point x="278" y="90" type="line" smooth="yes"/>
    </contour>
    <contour>
      <point x="495" y="0" type="move" name="ogonek"/>
    </contour>
    <contour>
      <point x="265" y="0" type="move" name="bottom"/>
    </contour>
    <contour>
      <point x="353" y="500" type="move" name="top"/>
    </contour>
  </outline>
</glyph>
<glyph name="c" format="1">
  <advance width="618"/>
  <unicode hex="0063"/>
  <note>
    c
  </note>
  <outline>
    <contour>
      <point x="358" y="0"/>
      <point x="495" y="-3"/>
      <point x="524" y="157" type="curve"/>
      <point x="435" y="163" type="line"/>
      <point x="422" y="93"/>
      <point x="326" y="90"/>
      <point x="280" y="90" type="curve" smooth="yes"/>
      <point x="278" y="90" type="line" smooth="yes"/>
      <point x="188" y="90"/>
      <point x="152" y="157"/>
      <point x="167" y="244" type="curve" smooth="yes"/>
      <point x="183" y="337"/>
      <point x="250" y="410"/>
      <point x="340" y="410" type="curve" smooth="yes"/>
      <point x="342" y="410" type="line" smooth="yes"/>
      <point x="388" y="410"/>
      <point x="479" y="413"/>
      <point x="466" y="343" type="curve"/>
      <point x="555" y="337" type="line"/>
      <point x="584" y="497"/>
      <point x="440" y="500"/>
      <point x="347" y="500" type="curve" smooth="yes"/>
      <point x="210" y="500"/>
      <point x="107" y="413"/>
      <point x="79" y="256" type="curve" smooth="yes"/>
      <point x="50" y="93"/>
      <point x="128" y="0"/>
      <point x="271" y="0" type="curve" smooth="yes"/>
    </contour>
    <contour>
      <point x="353" y="500" type="move" name="top"/>
    </contour>
    <contour>
      <point x="265" y="0" type="move" name="bottom"/>
    </contour>
  </outline>
</glyph>
<glyph name="h" format="1">
  <advance width="618"/>
  <unicode hex="0068"/>
  <note>
    h
  </note>
  <outline>
    <contour>
      <point x="124" y="0" type="line"/>
      <point x="196" y="410" type="line"/>
      <point x="340" y="410" type="line" smooth="yes"/>
      <point x="480" y="410"/>
      <point x="449" y="247"/>
      <point x="449" y="247" type="curve"/>
      <point x="406" y="0" type="line"/>
      <point x="496" y="0" type="line"/>
      <point x="539" y="247" type="line"/>
      <point x="539" y="247"/>
      <point x="580" y="500"/>
      <point x="350" y="500" type="curve" smooth="yes"/>
      <point x="212" y="500" type="line"/>
      <point x="256" y="750" type="line"/>
      <point x="166" y="750" type="line"/>
      <point x="34" y="0" type="line"/>
    </contour>
    <contour>
      <point x="154" y="250" type="move" name="center"/>
    </contour>
    <contour>
      <point x="265" y="0" type="move" name="bottom"/>
    </contour>
    <contour>
      <point x="353" y="500" type="move" name="top"/>
    </contour>
  </outline>
</glyph>
<glyph name="i" format="1">
  <advance width="618"/>
  <unicode hex="0069"/>
  <note>
    i
  </note>
  <outline>
    <contour>
      <point x="311" y="750"/>
      <point x="266" y="705"/>
      <point x="266" y="660" type="curve" smooth="yes"/>
      <point x="266" y="615"/>
      <point x="311" y="570"/>
      <point x="356" y="570" type="curve" smooth="yes"/>
      <point x="401" y="570"/>
      <point x="446" y="615"/>
      <point x="446" y="660" type="curve" smooth="yes"/>
      <point x="446" y="705"/>
      <point x="401" y="750"/>
      <point x="356" y="750" type="curve" smooth="yes"/>
    </contour>
    <component base="idotless"/>
    <contour>
      <point x="309" y="0" type="move" name="bottom"/>
    </contour>
  </outline>
</glyph>
<glyph name="j" format="1">
  <advance width="618"/>
  <unicode hex="006A"/>
  <note>
    j
  </note>
  <outline>
    <contour>
      <point x="391" y="750"/>
      <point x="347" y="705"/>
      <point x="347" y="660" type="curve" smooth="yes"/>
      <point x="347" y="615"/>
      <point x="391" y="570"/>
      <point x="436" y="570" type="curve" smooth="yes"/>
      <point x="481" y="570"/>
      <point x="526" y="615"/>
      <point x="526" y="660" type="curve" smooth="yes"/>
      <point x="526" y="705"/>
      <point x="481" y="750"/>
      <point x="436" y="750" type="curve" smooth="yes"/>
    </contour>
    <component base="jdotless"/>
  </outline>
</glyph>
<glyph name="o" format="1">
  <advance width="618"/>
  <unicode hex="006F"/>
  <note>
    o
  </note>
  <outline>
    <contour>
      <point x="408" y="0"/>
      <point x="495" y="-3"/>
      <point x="539" y="244" type="curve" smooth="yes"/>
      <point x="584" y="497"/>
      <point x="490" y="500"/>
      <point x="347" y="500" type="curve" smooth="yes"/>
      <point x="210" y="500"/>
      <point x="123" y="503"/>
      <point x="79" y="256" type="curve" smooth="yes"/>
      <point x="34" y="3"/>
      <point x="128" y="0"/>
      <point x="271" y="0" type="curve" smooth="yes"/>
    </contour>
    <contour>
      <point x="188" y="90"/>
      <point x="139" y="87"/>
      <point x="167" y="244" type="curve" smooth="yes"/>
      <point x="196" y="407"/>
      <point x="250" y="410"/>
      <point x="343" y="410" type="curve" smooth="yes"/>
      <point x="430" y="410"/>
      <point x="479" y="413"/>
      <point x="451" y="256" type="curve" smooth="yes"/>
      <point x="422" y="93"/>
      <point x="368" y="90"/>
      <point x="275" y="90" type="curve" smooth="yes"/>
    </contour>
    <contour>
      <point x="265" y="0" type="move" name="bottom"/>
    </contour>
    <contour>
      <point x="513" y="10" type="move" name="ogonek"/>
    </contour>
    <contour>
      <point x="353" y="500" type="move" name="top"/>
    </contour>
    <contour>
      <point x="641" y="500" type="move" name="topright"/>
    </contour>
    <contour>
      <point x="309" y="250" type="move" name="center"/>
    </contour>
  </outline>
</glyph>
<glyph name="v" format="1">
  <advance width="618"/>
  <unicode hex="0076"/>
  <note>
    v
  </note>
  <outline>
    <contour>
      <point x="314" y="0" type="line"/>
      <point x="585" y="500" type="line"/>
      <point x="486" y="500" type="line"/>
      <point x="286" y="130" type="line"/>
      <point x="218" y="500" type="line"/>
      <point x="123" y="500" type="line"/>
      <point x="218" y="0" type="line"/>
    </contour>
    <contour>
      <point x="353" y="500" type="move" name="top"/>
    </contour>
    <contour>
      <point x="265" y="0" type="move" name="bottom"/>
    </contour>
  </outline>
</glyph>
<glyph name="braceleft" format="1">
  <advance width="618"/>
  <unicode hex="007B"/>
  <note>
    braceleft
  </note>
  <outline>
    <contour>
      <point x="454" y="0" type="line"/>
      <point x="308" y="0"/>
      <point x="309" y="-3"/>
      <point x="334" y="136" type="curve" smooth="yes"/>
      <point x="352" y="237"/>
      <point x="360" y="294"/>
      <point x="349" y="324" type="curve"/>
      <point x="375" y="360"/>
      <point x="383" y="417"/>
      <point x="400" y="512" type="curve" smooth="yes"/>
      <point x="426" y="657"/>
      <point x="430" y="660"/>
      <point x="576" y="660" type="curve"/>
      <point x="586" y="750" type="line"/>
      <point x="440" y="750"/>
      <point x="353" y="753"/>
      <point x="312" y="524" type="curve" smooth="yes"/>
      <point x="287" y="379"/>
      <point x="282" y="375"/>
      <point x="136" y="375" type="curve"/>
      <point x="126" y="285" type="line"/>
      <point x="272" y="285"/>
      <point x="271" y="287"/>
      <point x="246" y="148" type="curve" smooth="yes"/>
      <point x="205" y="-87"/>
      <point x="298" y="-90"/>
      <point x="444" y="-90" type="curve"/>
    </contour>
  </outline>
</glyph>
<glyph name="yen" format="1">
  <advance width="618"/>
  <unicode hex="00A5"/>
  <note>
    yen
  </note>
  <outline>
    <contour>
      <point x="310" y="0" type="line"/>
      <point x="338" y="160" type="line"/>
      <point x="485" y="160" type="line"/>
      <point x="501" y="250" type="line"/>
      <point x="354" y="250" type="line"/>
      <point x="360" y="285" type="line"/>
      <point x="507" y="285" type="line"/>
      <point x="523" y="375" type="line"/>
      <point x="377" y="375" type="line"/>
      <point x="629" y="750" type="line"/>
      <point x="526" y="750" type="line"/>
      <point x="348" y="486" type="line"/>
      <point x="265" y="750" type="line"/>
      <point x="167" y="750" type="line"/>
      <point x="287" y="375" type="line"/>
      <point x="139" y="375" type="line"/>
      <point x="123" y="285" type="line"/>
      <point x="270" y="285" type="line"/>
      <point x="264" y="250" type="line"/>
      <point x="117" y="250" type="line"/>
      <point x="101" y="160" type="line"/>
      <point x="248" y="160" type="line"/>
      <point x="220" y="0" type="line"/>
    </contour>
  </outline>
</glyph>
<glyph name="registered" format="1">
  <advance width="618"/>
  <unicode hex="00AE"/>
  <note>
    registered
  </note>
  <outline>
    <contour>
      <point x="576" y="0"/>
      <point x="629" y="311"/>
      <point x="629" y="314" type="curve" smooth="yes"/>
      <point x="629" y="311"/>
      <point x="679" y="617"/>
      <point x="367" y="617" type="curve" smooth="yes"/>
      <point x="63" y="617"/>
      <point x="10" y="305"/>
      <point x="9" y="302" type="curve" smooth="yes"/>
      <point x="10" y="305"/>
      <point x="-40" y="0"/>
      <point x="271" y="0" type="curve" smooth="yes"/>
    </contour>
    <contour>
      <point x="53" y="84"/>
      <point x="95" y="311"/>
      <point x="95" y="314" type="curve" smooth="yes"/>
      <point x="95" y="311"/>
      <point x="138" y="534"/>
      <point x="365" y="534" type="curve" smooth="yes"/>
      <point x="586" y="534"/>
      <point x="545" y="305"/>
      <point x="544" y="302" type="curve" smooth="yes"/>
      <point x="545" y="305"/>
      <point x="501" y="84"/>
      <point x="273" y="84" type="curve" smooth="yes"/>
    </contour>
    <contour>
      <point x="201" y="142" type="line"/>
      <point x="225" y="281" type="line"/>
      <point x="300" y="281" type="line"/>
      <point x="373" y="142" type="line"/>
      <point x="432" y="142" type="line"/>
      <point x="359" y="284" type="line"/>
      <point x="378" y="284"/>
      <point x="464" y="317"/>
      <point x="474" y="376" type="curve"/>
      <point x="475" y="379"/>
      <point x="488" y="476"/>
      <point x="346" y="476" type="curve" smooth="yes"/>
      <point x="206" y="476" type="line"/>
      <point x="147" y="142" type="line"/>
    </contour>
    <contour>
      <point x="251" y="428" type="line"/>
      <point x="344" y="428" type="line" smooth="yes"/>
      <point x="432" y="428"/>
      <point x="420" y="379"/>
      <point x="419" y="376" type="curve" smooth="yes"/>
      <point x="420" y="379"/>
      <point x="409" y="336"/>
      <point x="321" y="336" type="curve" smooth="yes"/>
      <point x="235" y="336" type="line"/>
    </contour>
  </outline>
</glyph>
<glyph name="multiply" format="1">
  <advance width="618"/>
  <unicode hex="00D7"/>
  <note>
    multiply
  </note>
  <outline>
    <contour>
      <point x="336" y="392" type="line"/>
      <point x="454" y="245" type="line"/>
      <point x="526" y="308" type="line"/>
      <point x="408" y="455" type="line"/>
      <point x="578" y="602" type="line"/>
      <point x="524" y="665" type="line"/>
      <point x="354" y="518" type="line"/>
      <point x="236" y="665" type="line"/>
      <point x="164" y="602" type="line"/>
      <point x="282" y="455" type="line"/>
      <point x="112" y="308" type="line"/>
      <point x="166" y="245" type="line"/>
    </contour>
  </outline>
</glyph>
<glyph name="eth" format="1">
  <advance width="618"/>
  <unicode hex="00F0"/>
  <note>
    eth
  </note>
  <outline>
    <contour>
      <point x="408" y="0"/>
      <point x="514" y="101"/>
      <point x="536" y="229" type="curve" smooth="yes"/>
      <point x="561" y="372" type="line" smooth="yes"/>
      <point x="583" y="492"/>
      <point x="541" y="582"/>
      <point x="492" y="642" type="curve"/>
      <point x="573" y="686" type="line"/>
      <point x="552" y="750" type="line"/>
      <point x="440" y="694" type="line"/>
      <point x="396" y="731"/>
      <point x="354" y="750"/>
      <point x="349" y="750" type="curve"/>
      <point x="299" y="686" type="line"/>
      <point x="300" y="686"/>
      <point x="330" y="680"/>
      <point x="366" y="658" type="curve"/>
      <point x="284" y="617" type="line"/>
      <point x="270" y="528" type="line"/>
      <point x="426" y="610" type="line"/>
      <point x="465" y="567"/>
      <point x="495" y="505"/>
      <point x="477" y="415" type="curve"/>
      <point x="456" y="436"/>
      <point x="400" y="465"/>
      <point x="341" y="465" type="curve" smooth="yes"/>
      <point x="204" y="465"/>
      <point x="100" y="377"/>
      <point x="76" y="238" type="curve" smooth="yes"/>
      <point x="50" y="93"/>
      <point x="128" y="0"/>
      <point x="271" y="0" type="curve" smooth="yes"/>
    </contour>
    <contour>
      <point x="188" y="90"/>
      <point x="148" y="139"/>
      <point x="164" y="226" type="curve" smooth="yes"/>
      <point x="180" y="319"/>
      <point x="244" y="375"/>
      <point x="337" y="375" type="curve" smooth="yes"/>
      <point x="424" y="375"/>
      <point x="463" y="325"/>
      <point x="448" y="238" type="curve" smooth="yes"/>
      <point x="432" y="145"/>
      <point x="368" y="90"/>
      <point x="275" y="90" type="curve" smooth="yes"/>
    </contour>
  </outline>
</glyph>
<glyph name="divide" format="1">
  <advance width="618"/>
  <unicode hex="00F7"/>
  <note>
    divide
  </note>
  <outline>
    <contour>
      <point x="568" y="410" type="line"/>
      <point x="584" y="500" type="line"/>
      <point x="122" y="500" type="line"/>
      <point x="106" y="410" type="line"/>
    </contour>
    <contour>
      <point x="352" y="220"/>
      <point x="368" y="233"/>
      <point x="375" y="275" type="curve" smooth="yes"/>
      <point x="384" y="323"/>
      <point x="367" y="343"/>
      <point x="319" y="343" type="curve" smooth="yes"/>
      <point x="277" y="343"/>
      <point x="261" y="329"/>
      <point x="254" y="287" type="curve" smooth="yes"/>
      <point x="245" y="239"/>
      <point x="262" y="220"/>
      <point x="310" y="220" type="curve" smooth="yes"/>
    </contour>
    <contour>
      <point x="413" y="566"/>
      <point x="429" y="580"/>
      <point x="437" y="622" type="curve" smooth="yes"/>
      <point x="445" y="670"/>
      <point x="428" y="690"/>
      <point x="380" y="690" type="curve" smooth="yes"/>
      <point x="338" y="690"/>
      <point x="322" y="676"/>
      <point x="315" y="634" type="curve" smooth="yes"/>
      <point x="306" y="586"/>
      <point x="323" y="566"/>
      <point x="371" y="566" type="curve" smooth="yes"/>
    </contour>
  </outline>
</glyph>
<glyph name="jdotless" format="1">
  <advance width="618"/>
  <unicode hex="0237"/>
  <outline>
    <contour>
      <point x="430" y="-250"/>
      <point x="470" y="-91"/>
      <point x="477" y="-48" type="curve" smooth="yes"/>
      <point x="574" y="500" type="line"/>
      <point x="202" y="500" type="line"/>
      <point x="186" y="410" type="line"/>
      <point x="468" y="410" type="line"/>
      <point x="389" y="-42" type="line" smooth="yes"/>
      <point x="372" y="-138"/>
      <point x="299" y="-160"/>
      <point x="220" y="-160" type="curve" smooth="yes"/>
      <point x="144" y="-160"/>
      <point x="107" y="-138"/>
      <point x="66" y="-116" type="curve"/>
      <point x="17" y="-189" type="line"/>
      <point x="75" y="-220"/>
      <point x="139" y="-250"/>
      <point x="217" y="-250" type="curve" smooth="yes"/>
    </contour>
  </outline>
</glyph>
<glyph name="dotaccentcomb" format="1">
  <advance width="618"/>
  <unicode hex="0307"/>
  <outline>
    <contour>
      <point x="413" y="566"/>
      <point x="429" y="580"/>
      <point x="437" y="622" type="curve" smooth="yes"/>
      <point x="445" y="670"/>
      <point x="428" y="690"/>
      <point x="380" y="690" type="curve" smooth="yes"/>
      <point x="338" y="690"/>
      <point x="322" y="676"/>
      <point x="315" y="634" type="curve" smooth="yes"/>
      <point x="306" y="586"/>
      <point x="323" y="566"/>
      <point x="371" y="566" type="curve" smooth="yes"/>
    </contour>
    <contour>
      <point x="352" y="500" type="move" name="_top"/>
    </contour>
  </outline>
</glyph>
<glyph name="strokeshortcomb" format="1">
  <advance width="618"/>
  <unicode hex="0335"/>
  <outline>
    <contour>
      <point x="524" y="590" type="line"/>
      <point x="540" y="680" type="line"/>
      <point x="230" y="680" type="line"/>
      <point x="214" y="590" type="line"/>
    </contour>
    <contour>
      <point x="308" y="250" type="move" name="_center"/>
    </contour>
  </outline>
</glyph>
<glyph name="bitcoin" format="1">
  <advance width="618"/>
  <unicode hex="20BF"/>
  <outline>
    <contour>
      <point x="138" y="-200" type="line"/>
      <point x="157" y="-90" type="line"/>
      <point x="234" y="-90" type="line"/>
      <point x="215" y="-200" type="line"/>
      <point x="295" y="-200" type="line"/>
      <point x="318" y="-86" type="line"/>
      <point x="496" y="-55"/>
      <point x="526" y="123"/>
      <point x="526" y="126" type="curve" smooth="yes"/>
      <point x="526" y="123"/>
      <point x="539" y="219"/>
      <point x="446" y="276" type="curve"/>
      <point x="517" y="311"/>
      <point x="532" y="413"/>
      <point x="532" y="416" type="curve" smooth="yes"/>
      <point x="532" y="413"/>
      <point x="555" y="561"/>
      <point x="432" y="596" type="curve"/>
      <point x="456" y="714" type="line"/>
      <point x="376" y="714" type="line"/>
      <point x="356" y="604" type="line"/>
      <point x="279" y="604" type="line"/>
      <point x="299" y="714" type="line"/>
      <point x="219" y="714" type="line"/>
      <point x="199" y="604" type="line"/>
      <point x="132" y="604" type="line"/>
      <point x="10" y="-90" type="line"/>
      <point x="77" y="-90" type="line"/>
      <point x="58" y="-200" type="line"/>
    </contour>
    <contour>
      <point x="158" y="240" type="line"/>
      <point x="318" y="240" type="line" smooth="yes"/>
      <point x="458" y="240"/>
      <point x="435" y="117"/>
      <point x="434" y="114" type="curve" smooth="yes"/>
      <point x="435" y="117"/>
      <point x="410" y="0"/>
      <point x="270" y="0" type="curve" smooth="yes"/>
      <point x="116" y="0" type="line"/>
    </contour>
    <contour>
      <point x="207" y="514" type="line"/>
      <point x="367" y="514" type="line" smooth="yes"/>
      <point x="463" y="514"/>
      <point x="441" y="407"/>
      <point x="440" y="404" type="curve" smooth="yes"/>
      <point x="441" y="407"/>
      <point x="420" y="307"/>
      <point x="324" y="307" type="curve" smooth="yes"/>
      <point x="170" y="307" type="line"/>
    </contour>
  </outline>
</glyph>
<glyph name="uni2589" format="1">
  <advance width="618"/>
  <unicode hex="2589"/>
  <note>
    uni2589
  </note>
  <outline>
    <contour>
      <point x="540" y="-375" type="line"/>
      <point x="540" y="875" type="line"/>
      <point x="0" y="875" type="line"/>
      <point x="0" y="-375" type="line"/>
    </contour>
  </outline>
</glyph>
<glyph name="uni258E" format="1">
  <advance width="618"/>
  <unicode hex="258E"/>
  <note>
    uni258E
  </note>
  <outline>
    <contour>
      <point x="154" y="-375" type="line"/>
      <point x="154" y="875" type="line"/>
      <point x="0" y="875" type="line"/>
      <point x="0" y="-375" type="line"/>
    </contour>
  </outline>
</glyph>
<glyph name="uni25B3" format="1">
  <advance width="618"/>
  <unicode hex="25B3"/>
  <note>
    uni25B3
  </note>
  <outline>
    <contour>
      <point x="618" y="0" type="line"/>
      <point x="309" y="617" type="line"/>
      <point x="0" y="0" type="line"/>
    </contour>
    <contour>
      <point x="309" y="481" type="line"/>
      <point x="521" y="60" type="line"/>
      <point x="97" y="60" type="line"/>
    </contour>
  </outline>
</glyph>
<glyph name="uniE0A0" format="1">
  <advance width="618"/>
  <unicode hex="E0A0"/>
  <note>
    uniE0A0
  </note>
  <outline>
    <contour>
      <point x="248" y="-408" type="line"/>
      <point x="248" y="-123" type="line" smooth="yes"/>
      <point x="248" y="-74"/>
      <point x="255" y="-35"/>
      <point x="271" y="-7" type="curve" smooth="yes"/>
      <point x="285" y="18"/>
      <point x="310" y="43"/>
      <point x="346" y="67" type="curve" smooth="yes"/>
      <point x="390" y="96" type="line" smooth="yes"/>
      <point x="432" y="124"/>
      <point x="462" y="158"/>
      <point x="483" y="198" type="curve" smooth="yes"/>
      <point x="504" y="238"/>
      <point x="514" y="296"/>
      <point x="514" y="372" type="curve" smooth="yes"/>
      <point x="514" y="600" type="line"/>
      <point x="636" y="600" type="line"/>
      <point x="466" y="802" type="line"/>
      <point x="296" y="600" type="line"/>
      <point x="417" y="600" type="line"/>
      <point x="417" y="405" type="line" smooth="yes"/>
      <point x="417" y="354"/>
      <point x="410" y="313"/>
      <point x="395" y="282" type="curve" smooth="yes"/>
      <point x="380" y="251"/>
      <point x="355" y="223"/>
      <point x="320" y="200" type="curve" smooth="yes"/>
      <point x="232" y="141" type="line" smooth="yes"/>
      <point x="187" y="111"/>
      <point x="154" y="81"/>
      <point x="133" y="50" type="curve" smooth="yes"/>
      <point x="102" y="5"/>
      <point x="87" y="-52"/>
      <point x="87" y="-123" type="curve" smooth="yes"/>
      <point x="87" y="-408" type="line"/>
    </contour>
    <contour>
      <point x="248" y="293" type="line"/>
      <point x="248" y="961" type="line"/>
      <point x="87" y="961" type="line"/>
      <point x="87" y="188" type="line"/>
    </contour>
  </outline>
</glyph>
<glyph name="uniE0B1" format="1">
  <advance width="618"/>
  <unicode hex="E0B1"/>
  <note>
    uniE0B1
  </note>
  <outline>
    <contour>
      <point x="618" y="274" type="line"/>
      <point x="23" y="936" type="line"/>
      <point x="-33" y="880" type="line"/>
      <point x="510" y="274" type="line"/>
      <point x="-33" y="-331" type="line"/>
      <point x="23" y="-388" type="line"/>
    </contour>
  </outline>
</glyph>
<glyph name=".notdef" format="1">
  <advance width="618"/>
  <note>
    .notdef
  </note>
  <outline>
    <contour>
      <point x="455" y="0" type="line"/>
      <point x="572" y="666" type="line"/>
      <point x="192" y="666" type="line"/>
      <point x="75" y="0" type="line"/>
    </contour>
    <contour>
      <point x="266" y="576" type="line"/>
      <point x="466" y="576" type="line"/>
      <point x="381" y="90" type="line"/>
      <point x="181" y="90" type="line"/>
    </contour>
  </outline>
</glyph>
